<svg width="24" height="25" viewBox="0 0 24 25" fill="none" xmlns="http://www.w3.org/2000/svg">
<path d="M12.0002 0.833496C5.57183 0.833496 0.333496 6.07183 0.333496 12.5002C0.333496 18.9285 5.57183 24.1668 12.0002 24.1668C18.4285 24.1668 23.6668 18.9285 23.6668 12.5002C23.6668 6.07183 18.4285 0.833496 12.0002 0.833496ZM17.5768 9.81683L10.9618 16.4318C10.7985 16.5952 10.5768 16.6885 10.3435 16.6885C10.1102 16.6885 9.8885 16.5952 9.72516 16.4318L6.4235 13.1302C6.08516 12.7918 6.08516 12.2318 6.4235 11.8935C6.76183 11.5552 7.32183 11.5552 7.66016 11.8935L10.3435 14.5768L16.3402 8.58016C16.6785 8.24183 17.2385 8.24183 17.5768 8.58016C17.9152 8.9185 17.9152 9.46683 17.5768 9.81683Z" fill="#3366FF"/>
</svg>
