<svg xmlns="http://www.w3.org/2000/svg" xmlns:xlink="http://www.w3.org/1999/xlink" version="1.1" width="24pt" height="24pt" viewBox="0 0 24 24">
<path transform="matrix(1,0,0,-1,1.72998,22.277832)" d="M13.530001 .02805H7.01C2.1 .02805 0 2.128051 0 7.038051V7.168051C0 11.608051 1.75 13.748051 5.67 14.118051 6.07 14.14805 6.45 13.84805 6.49 13.43805 6.53 13.02805 6.23 12.658051 5.81 12.618051 2.67 12.328051 1.5 10.848051 1.5 7.158051V7.02805C1.5 2.95805 2.94 1.51805 7.01 1.51805H13.530001C17.6 1.51805 19.04 2.95805 19.04 7.02805V7.158051C19.04 10.868051 17.85 12.348051 14.65 12.618051 14.24 12.658051 13.929999 13.01805 13.969999 13.42805 14.009999 13.83805 14.360001 14.14805 14.780001 14.10805 18.76 13.76805 20.54 11.61805 20.54 7.14805V7.01805C20.54 2.12805 18.44 .02805 13.530001 .02805Z" fill="#374151"/>
<path transform="matrix(1,0,0,-1,11.25,15.629883)" d="M.75-.000117C.34-.000117 0 .339883 0 .749883V13.629883C0 14.039883 .34 14.379883 .75 14.379883 1.16 14.379883 1.5 14.039883 1.5 13.629883V.749883C1.5 .329883 1.16-.000117 .75-.000117Z" fill="#374151"/>
<path transform="matrix(1,0,0,-1,7.902344,16.822266)" d="M4.0975 .072422C3.9075 .072422 3.7175 .142421 3.5675 .292421L.2175 3.642421C-.0725 3.932421-.0725 4.412422 .2175 4.702422 .5075 4.992422 .9875 4.992422 1.2775 4.702422L4.0975 1.882422 6.9175 4.702422C7.2075 4.992422 7.6875 4.992422 7.9775 4.702422 8.267501 4.412422 8.267501 3.932421 7.9775 3.642421L4.6275 .292421C4.4775 .142421 4.2875 .072422 4.0975 .072422Z" fill="#374151"/>
</svg>
