<svg xmlns="http://www.w3.org/2000/svg" xmlns:xlink="http://www.w3.org/1999/xlink" version="1.1" width="24pt" height="24pt" viewBox="0 0 24 24">
<path transform="matrix(1,0,0,-1,2.246582,6.994629)" d="M18.753579 .264653C18.733578 .264653 18.703579 .264653 18.673579 .264653 13.383578 .794653 8.103578 .994653 2.873578 .464653L.833578 .264653C.413578 .224653 .043578 .524653 .003578 .944653-.036422 1.364653 .263578 1.724653 .673578 1.764653L2.713578 1.964653C8.033578 2.504653 13.423578 2.294653 18.823578 1.764653 19.233578 1.724653 19.533579 1.354653 19.493578 .944653 19.463578 .554653 19.133578 .264653 18.753579 .264653Z" fill="#374151"/>
<path transform="matrix(1,0,0,-1,7.749023,5.779785)" d="M.750742 .059785C.710742 .059785 .670742 .059785 .620742 .069785 .220742 .139785-.059258 .529785 .010742 .929785L.230742 2.239785C.390742 3.199785 .610742 4.529785 2.940742 4.529785H5.560742C7.900743 4.529785 8.120743 3.149785 8.270742 2.229785L8.490742 .929785C8.560741 .519785 8.280742 .129785 7.880742 .069785 7.470742-.000215 7.080742 .279785 7.020742 .679785L6.800742 1.979785C6.660742 2.849785 6.630742 3.019785 5.570742 3.019785H2.950742C1.890742 3.019785 1.870742 2.879785 1.720742 1.989785L1.490742 .689785C1.430742 .319785 1.110742 .059785 .750742 .059785Z" fill="#374151"/>
<path transform="matrix(1,0,0,-1,4.397949,22.769043)" d="M10.81195 .018968H4.391949C.901949 .018968 .76195 1.948967 .65195 3.508967L.00195 13.578968C-.02805 13.988968 .291949 14.348968 .701949 14.378967 1.121949 14.398967 1.47195 14.088967 1.50195 13.678967L2.15195 3.608968C2.26195 2.088968 2.301949 1.518968 4.391949 1.518968H10.81195C12.911949 1.518968 12.95195 2.088968 13.05195 3.608968L13.70195 13.678967C13.73195 14.088967 14.091949 14.398967 14.501949 14.378967 14.911949 14.348968 15.23195 13.998968 15.20195 13.578968L14.55195 3.508967C14.441951 1.948967 14.30195 .018968 10.81195 .018968Z" fill="#374151"/>
<path transform="matrix(1,0,0,-1,9.580078,17.25)" d="M4.08 0H.75C.34 0 0 .34 0 .75 0 1.16 .34 1.5 .75 1.5H4.08C4.49 1.5 4.83 1.16 4.83 .75 4.83 .34 4.49 0 4.08 0Z" fill="#374151"/>
<path transform="matrix(1,0,0,-1,8.75,13.25)" d="M5.75 0H.75C.34 0 0 .34 0 .75 0 1.16 .34 1.5 .75 1.5H5.75C6.16 1.5 6.5 1.16 6.5 .75 6.5 .34 6.16 0 5.75 0Z" fill="#374151"/>
</svg>
