<svg width="20" height="21" viewBox="0 0 20 21" fill="none" xmlns="http://www.w3.org/2000/svg">
<path d="M12.0834 10H7.91675C7.57508 10 7.29175 9.71667 7.29175 9.375C7.29175 9.03333 7.57508 8.75 7.91675 8.75H12.0834C12.4251 8.75 12.7084 9.03333 12.7084 9.375C12.7084 9.71667 12.4251 10 12.0834 10Z" fill="#111827"/>
<path d="M4.1083 19.4584C3.7583 19.4584 3.4333 19.3751 3.14163 19.2084C2.49997 18.8334 2.1333 18.0751 2.1333 17.1334V5.38341C2.1333 3.26675 3.8583 1.54175 5.97497 1.54175H14.0166C16.1333 1.54175 17.8583 3.26675 17.8583 5.38341V17.1251C17.8583 18.0667 17.4916 18.8251 16.85 19.2001C16.2083 19.5751 15.3666 19.5334 14.5416 19.0751L10.475 16.8167C10.2333 16.6834 9.7583 16.6834 9.51663 16.8167L5.44997 19.0751C4.99997 19.3251 4.54163 19.4584 4.1083 19.4584ZM5.9833 2.79175C4.5583 2.79175 3.39163 3.95841 3.39163 5.38341V17.1251C3.39163 17.6167 3.5333 17.9834 3.7833 18.1251C4.0333 18.2751 4.42497 18.2251 4.84997 17.9834L8.91663 15.7251C9.5333 15.3834 10.4666 15.3834 11.0833 15.7251L15.15 17.9834C15.575 18.2251 15.9666 18.2751 16.2166 18.1251C16.4666 17.9751 16.6083 17.6084 16.6083 17.1251V5.38341C16.6083 3.95841 15.4416 2.79175 14.0166 2.79175H5.9833Z" fill="#111827"/>
</svg>
