<svg width="25" height="24" viewBox="0 0 25 24" fill="none" xmlns="http://www.w3.org/2000/svg">
<path d="M21.5302 8.01002L14.9802 2.77002C13.7002 1.75002 11.7002 1.74002 10.4302 2.76002L3.88016 8.01002C2.94016 8.76002 2.37016 10.26 2.57016 11.44L3.83016 18.98C4.12016 20.67 5.69016 22 7.40016 22H18.0002C19.6902 22 21.2902 20.64 21.5802 18.97L22.8402 11.43C23.0202 10.26 22.4502 8.76002 21.5302 8.01002ZM13.4502 18C13.4502 18.41 13.1102 18.75 12.7002 18.75C12.2902 18.75 11.9502 18.41 11.9502 18V15C11.9502 14.59 12.2902 14.25 12.7002 14.25C13.1102 14.25 13.4502 14.59 13.4502 15V18Z" fill="#3366FF"/>
</svg>
