<svg width="25" height="24" viewBox="0 0 25 24" fill="none" xmlns="http://www.w3.org/2000/svg">
<path d="M12.1001 22.81C11.4101 22.81 10.7601 22.46 10.3001 21.85L8.8001 19.85C8.7701 19.81 8.6501 19.76 8.6001 19.75H8.1001C3.9301 19.75 1.3501 18.62 1.3501 13V8C1.3501 3.58 3.6801 1.25 8.1001 1.25H16.1001C20.5201 1.25 22.8501 3.58 22.8501 8V13C22.8501 17.42 20.5201 19.75 16.1001 19.75H15.6001C15.5201 19.75 15.4501 19.79 15.4001 19.85L13.9001 21.85C13.4401 22.46 12.7901 22.81 12.1001 22.81ZM8.1001 2.75C4.5201 2.75 2.8501 4.42 2.8501 8V13C2.8501 17.52 4.4001 18.25 8.1001 18.25H8.6001C9.1101 18.25 9.6901 18.54 10.0001 18.95L11.5001 20.95C11.8501 21.41 12.3501 21.41 12.7001 20.95L14.2001 18.95C14.5301 18.51 15.0501 18.25 15.6001 18.25H16.1001C19.6801 18.25 21.3501 16.58 21.3501 13V8C21.3501 4.42 19.6801 2.75 16.1001 2.75H8.1001Z" fill="#9CA3AF"/>
<path d="M12.1001 12C11.5401 12 11.1001 11.55 11.1001 11C11.1001 10.45 11.5501 10 12.1001 10C12.6501 10 13.1001 10.45 13.1001 11C13.1001 11.55 12.6601 12 12.1001 12Z" fill="#9CA3AF"/>
<path d="M16.1001 12C15.5401 12 15.1001 11.55 15.1001 11C15.1001 10.45 15.5501 10 16.1001 10C16.6501 10 17.1001 10.45 17.1001 11C17.1001 11.55 16.6601 12 16.1001 12Z" fill="#9CA3AF"/>
<path d="M8.1001 12C7.5401 12 7.1001 11.55 7.1001 11C7.1001 10.45 7.5501 10 8.1001 10C8.6501 10 9.1001 10.45 9.1001 11C9.1001 11.55 8.6601 12 8.1001 12Z" fill="#9CA3AF"/>
</svg>
