<svg width="25" height="24" viewBox="0 0 25 24" fill="none" xmlns="http://www.w3.org/2000/svg">
<path d="M12.4599 11.62C12.4299 11.62 12.4099 11.62 12.3799 11.62C12.3299 11.61 12.2599 11.61 12.1999 11.62C9.29986 11.53 7.10986 9.25 7.10986 6.44C7.10986 3.58 9.43986 1.25 12.2999 1.25C15.1599 1.25 17.4899 3.58 17.4899 6.44C17.4799 9.25 15.2799 11.53 12.4899 11.62C12.4799 11.62 12.4699 11.62 12.4599 11.62ZM12.2999 2.75C10.2699 2.75 8.60986 4.41 8.60986 6.44C8.60986 8.44 10.1699 10.05 12.1599 10.12C12.2099 10.11 12.3499 10.11 12.4799 10.12C14.4399 10.03 15.9799 8.42 15.9899 6.44C15.9899 4.41 14.3299 2.75 12.2999 2.75Z" fill="#9CA3AF"/>
<path d="M12.4699 22.55C10.5099 22.55 8.5399 22.05 7.0499 21.05C5.6599 20.13 4.8999 18.87 4.8999 17.5C4.8999 16.13 5.6599 14.86 7.0499 13.93C10.0499 11.94 14.9099 11.94 17.8899 13.93C19.2699 14.85 20.0399 16.11 20.0399 17.48C20.0399 18.85 19.2799 20.12 17.8899 21.05C16.3899 22.05 14.4299 22.55 12.4699 22.55ZM7.8799 15.19C6.9199 15.83 6.3999 16.65 6.3999 17.51C6.3999 18.36 6.9299 19.18 7.8799 19.81C10.3699 21.48 14.5699 21.48 17.0599 19.81C18.0199 19.17 18.5399 18.35 18.5399 17.49C18.5399 16.64 18.0099 15.82 17.0599 15.19C14.5699 13.53 10.3699 13.53 7.8799 15.19Z" fill="#9CA3AF"/>
</svg>
