<svg width="25" height="24" viewBox="0 0 25 24" fill="none" xmlns="http://www.w3.org/2000/svg">
<path d="M15.4004 11.3999H10.4004C9.99039 11.3999 9.65039 11.0599 9.65039 10.6499C9.65039 10.2399 9.99039 9.8999 10.4004 9.8999H15.4004C15.8104 9.8999 16.1504 10.2399 16.1504 10.6499C16.1504 11.0599 15.8104 11.3999 15.4004 11.3999Z" fill="#9CA3AF"/>
<path d="M5.83045 22.75C5.41045 22.75 5.02045 22.65 4.67045 22.45C3.90045 22 3.46045 21.09 3.46045 19.96V5.86C3.46045 3.32 5.53045 1.25 8.07045 1.25H17.7204C20.2604 1.25 22.3305 3.32 22.3305 5.86V19.95C22.3305 21.08 21.8904 21.99 21.1204 22.44C20.3504 22.89 19.3405 22.84 18.3505 22.29L13.4704 19.58C13.1804 19.42 12.6104 19.42 12.3204 19.58L7.44045 22.29C6.90045 22.59 6.35045 22.75 5.83045 22.75ZM8.08045 2.75C6.37045 2.75 4.97045 4.15 4.97045 5.86V19.95C4.97045 20.54 5.14045 20.98 5.44045 21.15C5.74045 21.33 6.21045 21.27 6.72045 20.98L11.6004 18.27C12.3404 17.86 13.4604 17.86 14.2004 18.27L19.0805 20.98C19.5905 21.27 20.0604 21.33 20.3604 21.15C20.6604 20.97 20.8305 20.53 20.8305 19.95V5.86C20.8305 4.15 19.4304 2.75 17.7204 2.75H8.08045Z" fill="#9CA3AF"/>
</svg>
